<?xml version="1.0" encoding="utf-8"?>
<svg version="1.0" width="700.000000pt" height="701.000000pt" viewBox="0 0 700.000000 701.000000" preserveAspectRatio="xMidYMid meet" xmlns="http://www.w3.org/2000/svg">
  <g transform="matrix(0.1, 0, 0, -0.1, -1.59681, 701)" fill="#000000" stroke="none">
    <path d="M3215 6989 c-33 -4 -107 -12 -165 -19 -528 -58 -1117 -291 -1585 -627 -472 -338 -884 -828 -1111 -1321 -25 -53 -54 -115 -64 -137 -99 -212 -213 -618 -250 -890 -16 -124 -39 -476 -34 -536 2 -30 9 -126 15 -214 24 -361 94 -674 232 -1032 35 -90 158 -349 194 -408 230 -379 386 -580 632 -817 523 -505 1214 -844 1922 -943 228 -31 602 -44 774 -25 44 5 125 14 180 20 359 41 805 182 1160 368 148 77 176 94 345 208 559 375 998 912 1260 1539 18 44 39 94 46 110 34 81 117 361 145 487 33 153 38 186 58 358 39 353 23 736 -44 1076 -189 952 -769 1786 -1595 2294 -115 71 -315 177 -435 230 -249 111 -656 225 -930 259 -226 29 -594 39 -750 20z m275 -1064 l0 -1050 -82 -7 c-46 -4 -119 -15 -162 -23 -43 -9 -82 -13 -86 -8 -3 4 -30 98 -59 208 -65 243 -82 306 -161 600 -34 127 -73 271 -86 320 -79 297 -115 434 -124 465 -5 19 -21 80 -36 135 -14 55 -38 144 -54 198 l-28 98 24 9 c42 16 318 69 419 80 55 6 134 15 175 20 41 4 117 7 168 6 l92 -1 0 -1050z m301 1040 c92 -8 200 -19 240 -26 100 -15 342 -68 351 -77 5 -5 -2 -41 -13 -82 -11 -41 -29 -106 -39 -145 -10 -38 -26 -97 -35 -130 -9 -33 -31 -116 -49 -185 -19 -69 -46 -170 -61 -225 -32 -119 -58 -217 -91 -345 -36 -136 -37 -138 -89 -330 -26 -96 -71 -265 -101 -374 -29 -110 -57 -203 -61 -207 -5 -4 -40 -1 -79 6 -40 8 -112 18 -160 22 l-89 8 -3 1040 c-1 572 0 1046 3 1053 6 16 70 15 276 -3z m-1167 -217 c15 -54 38 -139 51 -190 14 -51 48 -178 76 -283 28 -104 59 -221 69 -260 10 -38 42 -155 70 -260 57 -209 80 -294 115 -430 13 -49 33 -124 44 -165 69 -250 88 -331 82 -335 -5 -2 -41 -16 -82 -31 -41 -15 -105 -42 -142 -61 -37 -18 -72 -31 -76 -28 -12 7 -111 174 -306 515 -223 389 -374 650 -435 755 -224 382 -309 540 -297 551 74 70 770 354 798 325 4 -3 19 -50 33 -103z m1966 55 c258 -86 630 -258 630 -292 0 -4 -37 -72 -83 -152 -46 -79 -155 -268 -242 -419 -211 -367 -419 -729 -468 -815 -92 -162 -239 -411 -247 -419 -5 -5 -39 6 -82 27 -40 19 -102 45 -138 58 -77 27 -92 37 -86 58 2 9 30 111 60 226 77 289 119 444 166 620 23 83 59 220 81 305 40 151 109 410 129 480 5 19 28 105 50 190 22 85 43 161 45 169 7 18 50 9 185 -36z m784 -376 c149 -93 321 -224 436 -333 30 -28 70 -64 88 -79 20 -17 32 -35 30 -46 -2 -11 -334 -350 -738 -754 l-734 -735 -36 34 c-55 53 -181 146 -196 146 -8 0 -17 6 -20 14 -5 14 9 40 128 246 131 226 215 371 266 460 30 52 69 120 87 150 18 30 75 129 127 220 53 91 168 291 257 444 89 154 166 285 172 293 13 15 17 13 133 -60z m-3490 -155 c126 -220 165 -287 220 -379 19 -32 43 -75 55 -95 12 -21 29 -53 40 -70 95 -165 146 -255 203 -358 14 -25 57 -97 95 -160 39 -64 100 -170 136 -235 36 -66 89 -156 117 -200 l50 -80 -29 -27 c-17 -16 -34 -28 -40 -28 -5 0 -11 -3 -13 -7 -1 -5 -22 -20 -45 -36 -24 -15 -43 -32 -43 -37 0 -6 -6 -10 -13 -10 -8 0 -24 -11 -37 -25 -13 -14 -26 -25 -30 -25 -4 0 -155 149 -336 331 -181 181 -511 512 -733 734 l-404 405 19 21 c10 12 63 59 116 106 186 160 201 171 503 369 11 7 27 13 35 13 9 1 61 -80 134 -207z m-102 -1059 c406 -406 738 -742 738 -746 0 -5 -28 -43 -62 -86 -34 -42 -76 -100 -95 -128 -18 -29 -36 -53 -40 -53 -6 0 -176 97 -613 350 -168 97 -451 261 -630 364 -179 104 -356 206 -395 229 -38 22 -86 50 -105 62 -19 12 -43 24 -52 28 -10 3 -18 13 -18 22 0 30 170 283 289 430 79 97 230 265 239 265 4 0 339 -332 744 -737z m4219 685 c101 -100 296 -345 384 -483 21 -33 53 -82 72 -110 37 -55 36 -58 -27 -93 -47 -26 -208 -119 -355 -205 -66 -39 -165 -96 -220 -127 -55 -31 -215 -124 -355 -205 -140 -81 -372 -215 -515 -297 -143 -83 -264 -154 -270 -159 -18 -18 -34 -8 -70 46 -32 49 -44 59 -66 57 -3 -1 -6 6 -6 13 0 11 4 12 16 4 9 -6 1 3 -18 19 -19 17 -37 29 -41 27 -4 -2 -7 2 -7 10 0 12 4 12 21 -2 11 -10 4 2 -17 26 -29 35 -34 47 -26 62 11 22 1441 1460 1450 1459 4 0 26 -19 50 -42z m-5294 -789 c177 -103 610 -354 708 -409 17 -10 95 -55 175 -102 136 -80 531 -308 575 -333 80 -44 136 -78 140 -86 3 -4 -10 -39 -28 -76 -19 -37 -46 -101 -61 -142 -15 -41 -29 -77 -31 -81 -6 -9 -47 1 -335 78 -124 33 -259 70 -300 81 -41 11 -160 43 -265 71 -104 28 -233 63 -285 76 -52 13 -160 42 -240 64 -80 22 -246 67 -369 100 -124 33 -228 63 -232 67 -7 8 59 216 116 368 47 125 205 445 220 445 2 0 97 -55 212 -121z m5896 -47 c78 -153 163 -365 211 -522 34 -116 34 -140 -1 -140 -8 0 -71 -16 -141 -35 -162 -44 -430 -117 -552 -149 -52 -14 -120 -32 -150 -40 -1069 -288 -1143 -307 -1151 -298 -3 4 -16 36 -29 72 -12 36 -38 98 -56 139 -19 41 -34 79 -34 85 0 12 -5 9 450 272 295 170 873 505 1220 706 160 92 137 101 233 -90z m-2828 -236 c276 -59 592 -239 691 -393 18 -29 41 -60 51 -70 33 -34 83 -101 83 -112 0 -6 5 -11 10 -11 6 0 10 -6 10 -14 0 -8 12 -24 28 -36 15 -12 20 -19 12 -15 -8 4 -5 -2 6 -12 25 -21 56 -79 91 -172 22 -59 32 -104 49 -221 2 -19 10 -62 17 -95 30 -142 -1 -480 -58 -630 -35 -95 -92 -202 -138 -260 -23 -29 -67 -85 -97 -125 -127 -167 -211 -239 -390 -332 -175 -92 -289 -124 -525 -149 -187 -19 -371 -3 -455 40 -27 14 -121 49 -150 56 -3 1 -18 7 -33 13 -16 7 -35 12 -43 12 -8 0 -14 6 -14 13 0 7 -21 19 -47 26 -66 18 -184 101 -341 237 -53 46 -158 183 -182 239 -91 203 -143 346 -141 385 0 19 -6 94 -15 167 -16 128 -16 136 6 288 12 90 19 172 15 194 -5 30 1 57 28 127 50 127 79 187 111 226 15 18 64 80 108 138 44 58 92 115 108 128 15 12 49 42 74 66 79 77 272 193 403 242 40 15 122 32 216 44 84 10 168 21 187 24 62 8 253 -3 325 -18z m-3363 -502 c134 -36 326 -88 428 -115 102 -27 226 -61 275 -74 85 -24 525 -142 825 -221 74 -19 151 -41 170 -47 19 -6 39 -10 44 -9 4 2 5 -36 1 -85 -4 -48 -7 -103 -7 -122 1 -19 -3 -42 -8 -51 -5 -10 -10 -34 -12 -54 l-2 -36 -1046 2 -1045 3 3 105 c6 234 32 445 83 662 23 101 26 108 39 108 5 0 118 -30 252 -66z m6449 14 c49 -181 105 -630 95 -763 l-4 -50 -1034 0 -1033 0 -4 25 c-3 23 -4 24 -12 5 -5 -12 -6 5 -2 43 4 44 2 62 -6 62 -8 0 -10 11 -5 35 4 24 2 35 -5 35 -8 0 -10 12 -5 36 5 28 4 35 -6 29 -9 -6 -10 -1 -5 16 11 37 18 41 127 69 57 15 186 49 288 78 102 28 466 125 810 217 344 92 652 175 685 185 94 28 102 27 116 -22z m-4730 -894 c9 -28 19 -79 23 -115 3 -35 6 -71 7 -79 1 -8 1 -31 1 -50 l-2 -35 -87 -24 c-49 -13 -108 -30 -133 -36 -25 -7 -108 -29 -185 -49 -132 -35 -460 -123 -1220 -327 -181 -49 -341 -94 -354 -100 -13 -5 -27 -6 -32 -2 -12 13 -57 226 -79 374 -19 130 -43 476 -33 492 2 4 471 6 1041 5 l1037 -3 16 -51z m4839 -51 c0 -129 -33 -410 -65 -564 -15 -68 -29 -139 -32 -156 -10 -60 -15 -60 -240 1 -115 31 -251 68 -303 81 -52 14 -178 48 -280 75 -343 93 -444 120 -615 165 -93 25 -186 49 -205 55 -70 20 -286 78 -338 91 -29 7 -57 18 -61 24 -5 5 -3 38 5 75 8 36 17 107 21 158 l6 92 1054 0 1053 0 0 -97z m-4754 -331 c13 -40 40 -104 59 -142 19 -38 35 -75 35 -82 0 -8 -62 -49 -137 -92 -76 -44 -169 -98 -208 -121 -38 -23 -90 -53 -115 -67 -25 -14 -121 -69 -215 -123 -93 -54 -201 -116 -240 -138 -38 -22 -176 -102 -305 -177 -249 -145 -476 -277 -549 -317 -36 -21 -45 -23 -56 -11 -18 19 -147 277 -191 383 -53 128 -144 409 -135 417 6 7 44 18 286 82 50 13 164 44 255 69 91 25 253 68 360 97 107 29 249 67 315 85 66 18 201 54 300 80 99 26 248 67 330 90 83 24 158 42 168 42 13 -2 25 -22 43 -75z m2767 34 c189 -50 277 -73 402 -108 61 -17 133 -36 160 -43 28 -7 163 -43 300 -80 138 -37 297 -80 355 -96 386 -102 635 -171 642 -177 10 -10 -56 -218 -119 -377 -58 -146 -185 -406 -207 -424 -10 -8 -34 2 -96 39 -46 28 -84 50 -86 50 -2 0 -68 38 -244 140 -250 146 -745 431 -800 463 -19 10 -91 52 -160 92 -69 40 -141 82 -160 93 -119 68 -266 155 -273 162 -5 4 6 36 24 71 17 35 42 91 54 124 13 33 28 73 34 89 8 19 16 26 27 22 8 -3 75 -21 147 -40z m-2607 -353 c27 -38 72 -97 101 -133 l53 -64 -745 -746 -746 -745 -52 56 c-92 97 -122 132 -198 229 -127 162 -222 299 -263 378 -20 39 -15 48 41 77 21 10 49 27 63 36 14 9 149 87 300 174 151 87 300 173 330 190 30 18 98 57 150 87 52 30 156 90 230 133 174 102 685 395 687 395 1 0 23 -30 49 -67z m2330 58 c7 -8 94 -59 306 -180 85 -48 386 -222 573 -331 231 -134 336 -195 510 -295 255 -146 405 -235 405 -242 0 -3 -47 -76 -104 -162 -119 -178 -242 -335 -357 -454 l-79 -82 -745 749 -745 748 53 58 c30 32 75 90 101 129 46 69 62 81 82 62z m-2093 -325 c34 -29 90 -72 124 -95 35 -24 65 -46 68 -51 3 -5 -54 -111 -126 -237 -73 -125 -141 -244 -152 -263 -11 -19 -70 -123 -132 -230 -62 -107 -188 -325 -280 -485 -92 -159 -208 -361 -259 -447 -50 -87 -97 -158 -105 -158 -52 0 -528 355 -661 494 l-34 37 744 744 c410 410 747 745 748 745 2 0 32 -24 65 -54z m2599 -698 c394 -398 720 -726 724 -731 28 -28 -440 -404 -644 -517 -46 -26 -49 -25 -80 30 -24 43 -182 318 -287 500 -43 74 -110 191 -150 260 -70 121 -141 246 -302 523 -42 72 -111 193 -153 267 -42 74 -86 151 -98 170 -12 19 -22 40 -22 45 0 6 21 25 48 42 26 18 83 62 127 97 72 58 81 62 100 50 11 -7 342 -339 737 -736z m-2332 509 c0 -5 5 -5 10 -2 6 3 10 1 10 -5 0 -6 5 -8 10 -5 6 3 10 2 10 -3 0 -6 13 -9 29 -8 22 1 27 -2 23 -13 -3 -9 -1 -12 6 -7 7 4 12 2 12 -4 0 -6 4 -9 9 -5 5 3 12 1 16 -5 4 -6 11 -8 16 -5 5 4 9 1 9 -5 0 -7 7 -10 15 -6 8 3 15 1 15 -5 0 -6 7 -8 16 -5 8 3 12 2 9 -4 -3 -5 5 -12 18 -16 l25 -6 -15 -56 c-8 -31 -61 -232 -119 -447 -57 -214 -141 -527 -185 -695 -45 -168 -97 -361 -115 -430 -19 -69 -44 -161 -55 -205 -42 -157 -51 -185 -57 -185 -9 0 -280 93 -362 124 -141 53 -430 194 -437 213 -3 6 8 31 25 55 16 24 66 108 112 188 74 129 118 206 179 312 10 18 76 132 146 253 70 121 168 292 217 380 130 230 167 294 203 351 18 28 45 75 60 105 15 30 43 77 61 105 26 42 37 52 58 50 14 0 26 -5 26 -9z m1315 -7 c6 -11 49 -86 96 -167 48 -82 88 -153 90 -159 2 -5 17 -30 33 -55 23 -35 201 -342 310 -534 82 -144 348 -607 406 -706 38 -66 72 -130 75 -142 4 -20 -11 -30 -153 -99 -178 -88 -312 -142 -489 -201 -137 -44 -146 -43 -158 21 -4 20 -21 91 -40 157 -18 66 -45 167 -60 225 -15 58 -50 186 -77 285 -27 99 -67 245 -88 325 -83 318 -100 381 -119 437 -10 32 -29 101 -41 153 -12 52 -39 157 -59 232 l-37 137 30 13 c17 7 34 13 39 14 4 1 9 3 12 4 3 1 8 3 13 4 4 2 34 15 67 30 33 15 65 29 72 30 7 1 16 5 19 9 14 14 50 6 59 -13z m-345 -112 c5 -13 21 -66 34 -118 14 -52 36 -135 49 -185 39 -143 145 -541 172 -645 14 -52 44 -162 66 -245 23 -82 61 -224 84 -315 24 -91 64 -241 89 -334 26 -93 43 -173 39 -177 -39 -38 -650 -127 -808 -118 l-60 4 0 1055 0 1055 103 7 c56 4 126 14 155 22 69 19 66 19 77 -6z m-475 -139 c5 -5 0 -9 -13 -9 -25 0 -28 -5 -37 -73 -5 -39 -3 -48 11 -54 11 -4 23 1 35 15 9 12 22 22 28 22 13 0 15 -56 2 -65 -5 -3 -55 2 -110 10 -56 8 -103 15 -107 15 -3 0 -4 15 -2 33 4 38 24 42 41 7 26 -52 54 -21 56 63 1 27 -3 37 -14 37 -8 0 -15 5 -15 11 0 13 109 3 125 -12z m3 -215 c27 -5 30 -24 3 -24 -15 0 -19 -10 -23 -57 -3 -32 -3 -59 1 -61 61 -26 36 -33 -72 -17 -126 17 -165 41 -137 85 7 11 27 15 80 14 67 -2 70 -1 70 21 0 15 -8 26 -20 30 -11 4 -18 11 -15 16 6 8 52 5 113 -7z m-79 -215 c41 -14 51 -35 51 -103 0 -43 3 -56 15 -56 8 0 15 -4 15 -10 0 -12 -28 -13 -94 -4 -45 7 -65 24 -27 24 23 0 31 19 31 75 0 46 -9 55 -60 55 -35 0 -39 -6 -47 -70 -5 -42 -3 -50 11 -50 9 0 16 -5 16 -11 0 -8 -15 -10 -46 -5 -26 3 -53 6 -60 6 -21 0 -17 17 5 23 14 3 21 17 27 52 3 26 15 56 25 66 22 22 88 25 138 8z m-138 -209 c12 -7 19 -21 19 -40 0 -33 27 -53 63 -48 34 5 36 45 3 54 -14 3 -26 11 -26 16 0 10 82 4 137 -9 27 -6 21 -23 -8 -23 -16 0 -19 -7 -19 -50 0 -27 -1 -53 -1 -57 -1 -5 8 -12 20 -18 33 -16 25 -27 -16 -21 -21 3 -76 11 -123 16 -47 6 -95 18 -108 26 -28 18 -25 45 5 59 18 7 21 15 16 40 -7 38 -9 40 -27 26 -24 -20 -40 -3 -20 20 19 21 55 25 85 9z m-23 -218 c23 -4 41 -11 40 -17 -2 -5 -9 -9 -15 -7 -21 5 -15 -13 16 -42 24 -24 32 -26 50 -17 26 14 27 37 4 50 -33 18 -4 23 66 11 39 -6 69 -16 65 -21 -3 -5 -13 -9 -23 -9 -15 0 -20 -11 -26 -56 -7 -57 0 -73 33 -74 6 0 12 -5 12 -11 0 -10 -56 -7 -132 7 -34 7 -37 21 -5 26 22 3 39 48 18 48 -26 0 -92 -33 -81 -40 29 -18 -2 -26 -67 -18 -69 9 -110 28 -62 28 14 0 47 7 72 16 l47 16 -36 42 c-21 22 -50 47 -66 54 -15 6 -28 14 -28 17 0 7 66 5 118 -3z m17 -287 c37 -41 71 -75 76 -75 5 0 9 23 9 51 0 42 -3 52 -20 56 -11 3 -20 10 -20 15 0 10 50 6 123 -8 34 -7 36 -24 2 -24 -19 0 -25 -5 -25 -22 0 -13 -3 -40 -6 -60 -6 -34 -4 -38 20 -44 51 -12 26 -25 -36 -18 -80 9 -85 11 -149 85 -56 65 -67 65 -68 -3 -1 -21 5 -29 24 -34 33 -8 21 -27 -13 -20 -15 2 -48 8 -74 11 -50 6 -67 25 -24 25 22 0 26 6 36 58 16 81 16 82 49 82 24 0 42 -14 96 -75z m-110 -145 c76 -11 111 -30 56 -30 -21 0 -31 -4 -29 -12 6 -16 61 -30 106 -26 39 3 47 21 12 26 -11 2 -20 8 -20 14 0 10 71 6 143 -8 35 -7 35 -24 0 -24 -20 0 -45 -17 -94 -66 -64 -63 -67 -65 -104 -58 -33 6 -43 16 -92 90 -30 46 -60 84 -68 84 -8 0 -17 5 -20 10 -8 13 21 12 110 0z m90 -250 c208 -26 215 -27 215 -45 0 -9 -14 -15 -42 -17 l-43 -3 -12 -90 c-6 -49 -9 -93 -7 -97 3 -4 20 -10 39 -14 36 -6 46 -21 21 -30 -24 -9 -370 44 -410 62 -59 29 -63 89 -6 100 38 8 38 16 -1 33 -62 27 -60 91 4 110 47 13 56 13 242 -9z"/>
    <path d="M3049 6764 c-13 -14 -43 -30 -66 -37 -35 -9 -43 -15 -43 -35 0 -21 4 -23 47 -20 l47 3 14 -87 c8 -48 12 -94 9 -103 -4 -9 -19 -15 -42 -15 -31 0 -35 -3 -35 -25 0 -30 9 -31 160 -10 58 8 109 15 113 15 5 0 7 10 5 23 -3 19 -8 22 -41 20 -47 -3 -52 7 -67 137 -18 158 -18 160 -49 160 -17 0 -37 -10 -52 -26z"/>
    <path d="M3086 6315 c-107 -38 -154 -148 -107 -251 78 -171 351 -129 377 58 20 146 -120 247 -270 193z m126 -65 c22 -27 42 -123 33 -167 -13 -72 -92 -100 -134 -47 -25 31 -45 125 -37 170 13 68 95 95 138 44z"/>
    <path d="M3155 5840 c-37 -12 -79 -50 -101 -92 -39 -76 6 -207 86 -249 46 -25 120 -24 170 1 119 61 129 241 18 323 -31 23 -124 32 -173 17z m103 -57 c27 -25 42 -75 42 -145 0 -49 -4 -63 -25 -83 -50 -51 -105 -16 -125 80 -21 100 5 165 65 165 13 0 32 -8 43 -17z"/>
    <path d="M3202 5353 c-57 -28 -77 -67 -77 -153 0 -61 4 -82 23 -112 51 -82 132 -107 212 -66 114 59 121 252 11 325 -41 28 -120 31 -169 6z m123 -57 c22 -33 39 -135 31 -179 -14 -73 -91 -86 -117 -20 -17 45 -32 141 -25 167 14 58 82 77 111 32z"/>
    <path d="M3784 6666 c-96 -43 -97 -166 -1 -166 67 0 87 64 30 94 l-27 13 24 13 c55 29 150 -15 150 -70 0 -38 -35 -65 -112 -89 -120 -36 -159 -68 -173 -142 -6 -31 -4 -37 14 -42 12 -3 26 2 37 14 23 26 33 24 113 -16 80 -41 135 -46 174 -15 28 22 63 102 52 119 -12 20 -43 12 -49 -14 -11 -43 -38 -49 -124 -25 -42 12 -86 25 -97 30 -19 7 -18 9 8 19 16 6 61 16 100 22 141 20 177 46 177 124 0 52 -25 87 -83 117 -53 27 -168 35 -213 14z"/>
    <path d="M3718 6100 c-83 -44 -123 -186 -79 -285 27 -61 45 -82 93 -106 90 -46 194 -6 243 95 58 119 28 248 -68 295 -56 27 -138 27 -189 1z m158 -61 c37 -41 17 -217 -31 -265 -29 -29 -55 -30 -85 -6 -43 35 -36 207 11 266 26 33 77 35 105 5z"/>
    <path d="M3696 5560 c-135 -41 -172 -296 -58 -392 115 -97 272 25 272 212 0 130 -99 214 -214 180z m94 -70 c16 -16 20 -33 20 -88 0 -75 -22 -162 -46 -187 -20 -19 -58 -19 -78 1 -12 11 -16 36 -16 92 0 90 14 148 43 180 25 27 51 28 77 2z"/>
    <path d="M2283 6460 c-115 -58 -152 -160 -99 -277 15 -32 37 -69 49 -82 27 -29 93 -60 129 -61 49 0 132 38 173 80 33 33 39 47 43 93 4 46 1 57 -22 84 -33 39 -84 57 -135 48 -45 -7 -131 -58 -131 -77 0 -9 -3 -8 -10 2 -13 20 -13 97 1 122 6 11 26 26 44 34 44 18 47 18 44 -3 -5 -52 23 -71 75 -49 38 16 52 45 36 75 -27 51 -108 55 -197 11z m172 -223 c8 -12 15 -36 15 -54 0 -79 -99 -102 -135 -32 -20 39 -19 66 5 87 41 35 90 34 115 -1z"/>
    <path d="M2510 5953 c-86 -36 -130 -99 -130 -185 1 -196 220 -312 342 -182 57 62 66 165 21 254 -40 78 -89 113 -161 117 -31 1 -64 0 -72 -4z m88 -86 c29 -31 71 -125 78 -178 7 -49 -12 -82 -54 -94 -51 -15 -142 127 -142 222 0 20 7 45 17 55 23 25 75 23 101 -5z"/>
    <path d="M2696 5417 c-54 -30 -78 -67 -84 -125 -17 -179 175 -343 292 -251 47 37 69 95 64 164 -14 173 -152 281 -272 212z m107 -65 c52 -57 95 -223 67 -257 -20 -24 -59 -18 -90 15 -57 61 -100 216 -68 248 18 18 73 14 91 -6z"/>
    <path d="M4574 6451 c-97 -44 -160 -191 -123 -288 37 -99 200 -164 288 -115 70 38 89 125 42 191 -27 38 -96 71 -149 71 -23 0 -42 5 -42 10 0 6 15 27 34 48 29 31 40 37 74 36 22 -1 50 -8 62 -17 l22 -15 -21 -11 c-47 -26 -10 -91 51 -91 29 0 58 31 58 64 0 32 -80 100 -139 119 -68 22 -106 21 -157 -2z m94 -217 c49 -32 12 -134 -49 -134 -45 0 -83 42 -75 83 3 18 18 42 32 55 27 24 48 23 92 -4z"/>
    <path d="M4365 5938 c-126 -69 -166 -259 -76 -362 25 -28 87 -56 126 -56 77 0 150 52 189 135 43 89 30 192 -31 247 -47 43 -160 63 -208 36z m125 -58 c5 0 16 -7 24 -16 35 -35 6 -164 -55 -236 -24 -30 -37 -38 -64 -38 -72 0 -82 77 -26 196 30 63 75 109 99 99 7 -3 17 -5 22 -5z"/>
    <path d="M4159 5410 c-19 -10 -47 -36 -61 -58 -106 -159 -56 -342 92 -342 103 0 200 114 208 245 3 50 0 66 -20 95 -52 77 -141 102 -219 60z m129 -56 c36 -25 30 -86 -18 -181 -45 -90 -74 -114 -115 -95 -21 10 -25 18 -25 54 0 60 39 166 76 205 35 37 50 40 82 17z"/>
    <path d="M1631 6089 c-95 -42 -171 -132 -171 -200 0 -40 36 -72 74 -65 34 7 66 38 66 66 0 19 -30 50 -49 50 -21 0 5 35 42 55 40 21 82 15 89 -13 7 -25 -14 -72 -42 -95 -22 -19 -22 -19 -3 -39 19 -19 22 -19 51 -4 33 17 79 21 99 8 7 -4 16 -22 19 -40 6 -28 1 -37 -34 -72 -46 -46 -72 -53 -65 -16 7 35 -30 70 -65 61 -60 -14 -80 -78 -38 -120 48 -48 108 -43 199 15 46 29 102 101 113 148 15 59 -40 132 -99 132 l-35 0 5 45 c5 39 2 47 -25 75 -36 36 -68 38 -131 9z"/>
    <path d="M1960 5630 c-66 -22 -123 -80 -138 -141 -30 -118 102 -279 230 -279 77 0 156 62 179 140 21 70 -26 192 -94 244 -25 19 -110 58 -121 56 0 -1 -26 -9 -56 -20z m88 -114 c89 -83 119 -178 67 -212 -21 -14 -30 -14 -55 -4 -54 22 -149 148 -150 198 0 20 47 62 70 62 11 0 42 -20 68 -44z"/>
    <path d="M2275 5176 c-42 -18 -93 -79 -100 -120 -22 -115 88 -257 217 -281 49 -9 121 23 147 66 45 74 32 160 -39 255 -62 82 -149 113 -225 80z m74 -81 c29 -15 85 -84 115 -142 32 -63 12 -112 -39 -99 -57 14 -165 147 -165 203 0 25 24 53 46 53 8 0 28 -7 43 -15z"/>
    <path d="M1077 5582 c-9 -10 -17 -30 -17 -45 0 -20 -13 -36 -56 -67 -62 -46 -94 -91 -94 -132 0 -21 -4 -26 -15 -21 -9 3 -25 -3 -35 -12 -25 -22 -19 -29 67 -91 l65 -46 20 20 21 21 -32 31 c-17 17 -31 40 -31 51 0 15 118 158 120 146 14 -85 32 -163 45 -191 15 -32 99 -116 116 -116 4 0 19 18 34 40 l28 40 -42 36 c-55 47 -83 99 -120 219 -17 55 -36 108 -44 118 -12 18 -13 18 -30 -1z"/>
    <path d="M1456 5157 c-59 -37 -96 -99 -96 -164 0 -65 15 -98 69 -146 99 -89 208 -100 293 -29 58 49 75 139 39 217 -21 46 -88 111 -137 131 -52 22 -123 18 -168 -9z m105 -77 c54 -28 136 -109 144 -143 10 -38 -8 -75 -40 -83 -69 -17 -235 111 -235 181 0 23 45 65 70 65 11 0 39 -9 61 -20z"/>
    <path d="M1925 4815 c-49 -17 -90 -61 -105 -112 -18 -58 1 -115 55 -168 144 -145 345 -116 345 49 0 57 -19 97 -74 154 -71 75 -149 102 -221 77z m101 -103 c62 -41 118 -97 129 -131 8 -26 -9 -58 -35 -66 -50 -16 -222 106 -236 167 -7 32 24 68 59 68 13 0 50 -17 83 -38z"/>
    <path d="M5846 5513 c-58 -37 -86 -61 -84 -72 2 -9 25 -26 51 -39 108 -51 115 -168 12 -202 -43 -14 -84 5 -114 53 -27 44 -27 47 7 47 15 0 33 5 40 12 19 19 14 66 -8 88 -48 48 -110 6 -110 -74 0 -62 23 -110 81 -168 72 -72 157 -77 226 -15 28 26 36 42 40 80 7 59 -31 142 -85 187 -30 24 -34 32 -23 42 11 11 17 7 35 -16 44 -62 88 -105 120 -120 33 -16 96 -22 96 -10 0 4 -26 34 -57 68 -32 34 -73 89 -91 123 -18 34 -37 65 -41 67 -5 3 -48 -20 -95 -51z"/>
    <path d="M5339 5152 c-139 -89 -167 -236 -64 -331 43 -39 47 -41 110 -41 36 0 81 6 99 14 46 19 116 84 133 123 22 54 17 123 -13 168 -45 69 -79 89 -153 93 -59 3 -71 0 -112 -26z m196 -77 c14 -13 25 -31 25 -40 0 -49 -71 -123 -157 -162 -59 -27 -85 -24 -109 13 -31 47 9 110 110 176 69 44 98 47 131 13z"/>
    <path d="M4965 4823 c-36 -8 -109 -64 -144 -109 -59 -77 -60 -170 -2 -228 26 -26 39 -31 94 -34 105 -7 202 50 248 144 63 130 -50 261 -196 227z m129 -89 c40 -39 6 -100 -94 -165 -78 -51 -117 -60 -144 -33 -31 31 -9 84 56 137 93 76 149 94 182 61z"/>
    <path d="M582 4805 c-19 -41 -15 -55 49 -212 88 -211 105 -220 163 -80 22 50 42 95 46 100 3 4 15 1 26 -7 16 -12 17 -18 8 -44 -13 -33 -3 -52 26 -52 23 0 117 230 98 241 -23 15 -37 10 -53 -21 -16 -31 -30 -36 -53 -21 -11 7 -11 15 2 44 14 34 14 38 -4 47 -31 17 -48 11 -59 -20 -5 -16 -16 -30 -23 -30 -8 0 -54 18 -103 40 -50 22 -95 40 -101 40 -6 0 -16 -11 -22 -25z m142 -135 c25 -12 46 -26 46 -33 0 -7 -10 -32 -21 -57 l-21 -45 -13 26 c-26 49 -55 129 -46 129 5 0 29 -9 55 -20z"/>
    <path d="M1093 4570 c-13 -44 -38 -105 -58 -135 l-35 -55 100 -50 c93 -47 100 -49 109 -31 6 10 8 41 5 68 -6 43 -3 53 19 78 19 22 33 29 59 28 49 -1 93 -27 107 -62 11 -25 10 -36 -8 -76 -19 -43 -41 -53 -41 -19 0 18 -43 39 -64 31 -24 -10 -48 -54 -41 -77 3 -11 20 -27 37 -36 83 -43 188 61 188 186 0 116 -131 199 -220 138 -45 -30 -79 -81 -86 -130 -7 -42 -20 -56 -36 -40 -8 8 -5 25 10 60 32 74 36 121 15 161 -10 19 -22 36 -28 38 -5 1 -20 -33 -32 -77z"/>
    <path d="M1675 4385 c-80 -29 -129 -118 -106 -195 34 -114 232 -192 345 -136 76 38 99 130 52 211 -55 92 -201 153 -291 120z m155 -123 c87 -43 111 -74 92 -117 -12 -27 -15 -27 -70 -22 -62 5 -164 46 -199 79 -29 27 -29 62 -2 89 28 28 80 19 179 -29z"/>
    <path d="M6245 4848 c-28 -16 -35 -28 -35 -65 0 -34 29 -73 53 -73 27 0 50 27 49 59 -1 28 1 30 19 21 49 -27 67 -136 27 -164 -38 -27 -64 -19 -138 45 -39 33 -83 67 -98 75 -62 32 -164 6 -142 -37 6 -10 21 -19 34 -19 30 0 36 -16 36 -96 0 -72 16 -119 50 -149 17 -15 36 -20 81 -20 63 1 84 12 73 38 -4 12 -18 17 -44 17 -47 0 -56 11 -75 95 -9 38 -21 77 -26 88 -6 10 -8 21 -5 24 9 9 55 -33 101 -94 80 -103 131 -124 196 -80 63 42 75 104 38 202 -42 113 -127 171 -194 133z"/>
    <path d="M5645 4602 c-70 -34 -96 -60 -124 -122 -25 -56 -26 -84 -2 -135 59 -130 240 -150 359 -41 85 76 69 228 -29 293 -61 40 -128 42 -204 5z m200 -97 c14 -13 25 -33 25 -43 0 -53 -109 -120 -210 -129 -52 -5 -59 -3 -74 18 -26 37 -20 63 24 103 22 20 41 36 43 36 1 0 27 9 57 20 74 26 106 25 135 -5z"/>
    <path d="M5159 4377 c-77 -32 -124 -71 -148 -121 -56 -115 15 -216 150 -216 142 0 249 84 249 196 0 125 -123 195 -251 141z m171 -87 c11 -11 20 -29 20 -41 0 -48 -118 -116 -221 -126 -42 -5 -49 -3 -64 21 -14 21 -16 32 -7 51 13 27 85 72 157 97 66 23 91 22 115 -2z"/>
    <path d="M1019 4007 c-45 -17 -73 -36 -100 -71 -29 -37 -38 -149 -16 -193 74 -142 313 -148 398 -9 21 34 25 108 9 150 -34 90 -195 158 -291 123z m120 -108 c58 -12 114 -47 119 -73 13 -65 -33 -91 -146 -83 -126 8 -184 50 -161 115 5 16 20 34 32 40 29 14 94 15 156 1z"/>
    <path d="M724 3993 c-14 -45 -25 -63 -36 -63 -7 0 -73 9 -146 20 -179 27 -188 26 -195 -6 -3 -18 3 -38 19 -62 15 -21 24 -49 24 -72 0 -29 4 -39 20 -43 24 -6 26 -3 35 46 7 35 9 37 44 36 20 0 72 -6 116 -12 l80 -12 3 -42 c2 -32 8 -44 23 -48 11 -4 22 -5 24 -3 7 6 35 205 35 243 0 29 -4 35 -20 35 -11 0 -23 -8 -26 -17z"/>
    <path d="M1565 3913 c-35 -9 -82 -51 -100 -89 -22 -48 -16 -120 14 -161 42 -56 95 -78 191 -78 75 0 90 3 132 28 56 33 78 69 78 130 0 96 -93 167 -225 173 -38 2 -79 0 -90 -3z m191 -114 c85 -32 91 -98 12 -120 -46 -12 -173 3 -218 26 -52 27 -52 85 1 113 31 16 136 7 205 -19z"/>
    <path d="M6298 4054 c-41 -22 -60 -67 -60 -144 -1 -87 14 -128 63 -176 37 -37 44 -39 99 -39 55 0 62 3 95 35 48 49 66 134 42 205 -16 47 -15 65 4 65 5 0 9 -18 9 -40 0 -83 68 -210 112 -210 16 0 19 4 14 23 -22 74 -36 161 -36 225 l0 72 -82 0 c-46 0 -93 -3 -105 -6 -31 -8 -30 -43 2 -90 46 -68 28 -142 -41 -164 -63 -21 -115 16 -128 91 -8 41 7 70 26 51 30 -30 88 1 88 47 0 24 -41 71 -62 71 -7 -1 -25 -7 -40 -16z"/>
    <path d="M5913 3973 c-37 -4 -43 -7 -43 -27 0 -12 11 -33 24 -45 28 -27 41 -82 26 -111 -14 -26 -61 -50 -100 -50 -45 0 -90 47 -90 94 0 35 13 55 25 36 9 -14 58 -13 73 2 7 7 12 26 12 43 0 39 -16 55 -56 55 -70 0 -111 -69 -101 -173 9 -99 69 -157 163 -157 45 0 59 5 89 31 23 20 40 48 50 81 13 46 13 55 -4 104 -17 52 -17 54 1 54 15 0 18 -8 18 -44 0 -54 44 -141 82 -164 15 -9 30 -13 34 -10 3 4 -2 37 -11 75 -10 37 -18 101 -18 141 l1 72 -67 -2 c-36 -1 -85 -3 -108 -5z"/>
    <path d="M5255 3895 c-22 -8 -59 -34 -82 -59 -41 -42 -43 -48 -43 -103 1 -62 6 -73 57 -115 93 -76 287 -48 346 51 11 18 17 50 17 87 0 64 -27 112 -80 139 -37 19 -161 19 -215 0z m205 -90 c56 -29 47 -85 -18 -112 -41 -17 -167 -29 -206 -19 -36 9 -61 48 -46 75 29 54 203 91 270 56z"/>
    <path d="M1552 3409 c-90 -45 -124 -137 -83 -223 33 -68 77 -91 171 -91 62 0 86 6 133 28 70 35 99 74 105 141 5 64 -24 111 -88 144 -61 31 -176 31 -238 1z m248 -94 c60 -54 -23 -116 -164 -123 -76 -4 -82 -3 -105 21 -61 66 38 130 191 123 39 -1 64 -8 78 -21z"/>
    <path d="M1020 3369 c-41 -16 -89 -58 -107 -92 -10 -19 -16 -55 -16 -89 2 -141 116 -216 273 -178 102 25 171 124 155 224 -9 51 -84 129 -135 139 -47 10 -141 7 -170 -4z m220 -117 c31 -25 30 -70 -4 -98 -35 -31 -87 -44 -168 -44 -78 0 -108 19 -108 68 0 58 64 90 181 91 60 1 82 -3 99 -17z"/>
    <path d="M549 3290 l-39 -41 -28 21 c-43 32 -90 24 -119 -19 -18 -27 -23 -48 -23 -103 0 -97 16 -151 57 -193 28 -29 41 -35 75 -35 34 0 46 6 74 35 l33 35 30 -30 c40 -40 79 -40 120 0 35 36 45 75 39 168 -7 121 -66 202 -147 202 -27 0 -42 -9 -72 -40z m143 -100 c25 -49 24 -124 -2 -150 -27 -27 -44 -25 -73 9 -23 27 -24 34 -15 81 5 29 14 63 19 77 13 36 49 27 71 -17z m-213 -6 c21 -15 23 -22 17 -71 -8 -66 -21 -93 -45 -93 -47 0 -79 106 -47 155 19 29 42 32 75 9z"/>
    <path d="M5258 3416 c-88 -24 -138 -78 -138 -149 0 -94 89 -167 223 -183 215 -25 297 231 102 316 -56 25 -132 32 -187 16z m168 -106 c65 -25 87 -83 42 -114 -38 -27 -181 -15 -250 20 -49 25 -49 84 0 103 32 13 166 7 208 -9z"/>
    <path d="M5795 3351 c-112 -50 -149 -180 -77 -270 91 -116 294 -123 367 -13 66 100 28 234 -80 283 -53 25 -156 25 -210 0z m181 -102 c46 -12 84 -47 84 -79 0 -10 -10 -30 -22 -45 -21 -27 -23 -27 -112 -23 -96 5 -167 30 -180 63 -23 61 19 95 116 95 38 0 89 -5 114 -11z"/>
    <path d="M6371 3233 c-18 -135 -18 -134 -44 -124 -16 6 -22 17 -23 41 0 25 -6 35 -22 41 -12 5 -24 4 -27 0 -9 -16 -36 -233 -31 -248 10 -25 51 -11 54 19 4 32 24 51 46 42 12 -5 15 -17 14 -48 -3 -40 -2 -41 27 -41 26 0 30 4 33 30 2 17 7 34 12 39 4 4 53 0 109 -9 56 -9 108 -14 116 -11 25 9 18 74 -12 115 -141 190 -186 241 -213 241 -27 0 -28 -1 -39 -87z m116 -75 c63 -85 63 -82 2 -74 -30 4 -57 10 -61 14 -9 9 2 112 12 112 4 0 25 -24 47 -52z"/>
    <path d="M1913 2977 c-89 -30 -93 -30 -106 -13 -8 11 -19 16 -25 12 -10 -6 18 -94 41 -123 14 -19 29 -4 23 22 -5 20 0 25 41 39 25 9 48 14 50 12 2 -2 -17 -36 -41 -76 -45 -73 -45 -73 -29 -109 8 -20 17 -44 20 -53 8 -28 31 -21 35 9 2 23 14 33 68 59 55 27 67 30 76 18 14 -17 34 -18 34 -1 0 6 -8 34 -17 60 -12 32 -22 47 -33 45 -9 -2 -14 -12 -12 -24 3 -21 -5 -26 -86 -61 -33 -14 -33 -14 -21 9 7 13 32 53 56 89 38 57 42 69 34 92 -6 15 -12 27 -13 26 -2 0 -45 -15 -95 -32z"/>
    <path d="M1658 2933 c-10 -2 -18 -8 -18 -12 0 -14 23 -29 36 -24 23 9 16 -15 -8 -28 -13 -7 -27 -18 -31 -26 -7 -11 -12 -11 -30 2 -56 39 -98 1 -78 -71 36 -126 137 -312 118 -215 -7 32 -6 33 66 66 70 33 72 34 86 15 17 -25 31 -26 31 -1 0 25 -57 151 -68 151 -17 0 -21 -12 -12 -36 8 -21 6 -26 -15 -36 -32 -14 -51 -5 -59 28 -6 23 -3 32 16 46 53 39 60 49 53 76 -5 26 -48 73 -63 71 -4 -1 -15 -3 -24 -6z m-18 -196 c22 -41 23 -49 10 -57 -31 -20 -48 -11 -64 37 -12 35 -13 49 -4 60 17 21 31 11 58 -40z"/>
    <path d="M1205 2780 c-8 -13 57 -162 74 -168 11 -4 12 3 7 30 -6 35 -6 35 50 57 31 11 64 21 75 21 23 0 48 -37 56 -84 l6 -36 -69 -32 c-39 -18 -69 -27 -71 -21 -9 27 -32 48 -42 37 -8 -7 0 -36 27 -99 40 -95 66 -122 60 -64 -3 32 0 36 53 64 81 43 89 52 89 96 0 80 -57 183 -112 202 -10 3 -43 -3 -74 -13 -72 -25 -91 -25 -99 0 -7 21 -20 26 -30 10z"/>
    <path d="M868 2678 c-27 -11 -48 -26 -48 -33 0 -14 164 -412 174 -422 6 -6 78 19 105 36 12 8 13 14 3 35 -10 22 -16 25 -41 20 -25 -5 -36 -1 -61 25 -17 17 -30 38 -28 47 2 10 41 32 97 55 51 21 95 39 97 39 2 0 13 -18 24 -40 14 -27 25 -38 35 -34 8 4 15 9 15 13 0 3 -23 63 -52 133 -39 95 -58 128 -70 128 -21 0 -23 -19 -6 -55 9 -21 9 -28 -3 -39 -22 -22 -183 -85 -192 -76 -5 4 -11 26 -14 48 -5 35 -2 44 22 66 21 20 26 31 21 51 -8 30 -16 30 -78 3z"/>
    <path d="M417 2613 c-25 -6 -16 -28 12 -29 37 -2 58 -55 27 -67 -21 -8 -26 3 -13 24 17 27 5 31 -37 14 -35 -15 -41 -35 -10 -35 9 0 14 -6 12 -12 -8 -23 -32 -14 -43 15 -8 24 -6 31 9 43 17 12 17 14 3 19 -8 4 -24 2 -36 -4 -19 -11 -19 -12 11 -86 28 -69 48 -95 48 -61 0 18 76 49 101 41 25 -8 24 -3 -8 77 -26 68 -32 72 -76 61z"/>
    <path d="M470 2430 c-6 -10 -16 -17 -23 -14 -7 2 -20 -1 -29 -8 -14 -11 -16 -20 -9 -51 10 -41 36 -77 57 -77 7 0 20 7 29 17 9 9 30 17 46 18 17 2 32 5 35 8 7 6 -24 97 -38 114 -16 20 -56 16 -68 -7z m66 -45 c4 -15 1 -32 -7 -41 -12 -15 -14 -14 -20 7 -12 40 -10 59 6 59 8 0 17 -11 21 -25z m-74 -57 c-17 -17 -32 22 -19 52 l10 25 10 -33 c7 -23 7 -36 -1 -44z"/>
    <path d="M728 2425 c-9 -17 -25 -39 -37 -49 -41 -37 -21 -60 62 -68 26 -3 47 -1 47 4 0 21 -21 47 -34 42 -7 -3 -16 2 -20 12 -4 12 -2 15 9 10 18 -7 19 9 1 49 l-13 30 -15 -30z"/>
    <path d="M495 2265 c-29 -28 -31 -51 -10 -101 35 -84 154 -70 155 19 1 88 -89 139 -145 82z m103 -27 c33 -33 -4 -92 -54 -86 -21 2 -31 11 -39 32 -8 24 -6 31 14 47 26 22 61 25 79 7z"/>
    <path d="M628 2109 c-26 -14 -22 -29 7 -29 21 0 45 -24 45 -44 0 -12 -76 -37 -97 -31 -27 6 -28 -3 -8 -51 14 -33 35 -39 35 -9 0 19 79 49 95 35 24 -20 23 4 -4 73 -26 68 -38 77 -73 56z"/>
    <path d="M5084 2956 c-37 -16 -69 -55 -84 -102 -45 -135 202 -299 335 -222 78 46 106 143 63 219 -52 93 -215 148 -314 105z m154 -98 c57 -21 122 -76 122 -102 0 -9 -10 -26 -21 -37 -28 -28 -85 -22 -172 18 -102 48 -135 102 -84 138 26 18 73 13 155 -17z"/>
    <path d="M5605 2751 c-140 -85 -123 -257 34 -338 119 -62 223 -36 275 69 56 111 19 208 -99 264 -64 31 -165 33 -210 5z m141 -95 c109 -40 155 -105 109 -156 -36 -39 -162 -12 -239 52 -44 36 -50 87 -14 112 31 22 66 20 144 -8z"/>
    <path d="M6113 2604 c-3 -9 -1 -25 5 -35 21 -33 13 -50 -47 -115 -69 -74 -81 -108 -54 -161 18 -38 78 -86 97 -80 20 7 18 39 -3 53 -32 23 -26 65 19 135 22 34 40 68 40 75 0 7 5 16 11 20 9 5 10 -26 5 -122 -8 -148 -2 -175 46 -204 65 -40 137 -14 184 66 60 102 65 195 13 246 -34 35 -72 36 -104 3 -61 -60 -1 -143 61 -84 21 20 22 20 28 2 17 -53 -37 -133 -89 -133 -53 0 -68 27 -76 138 -3 53 -11 108 -16 122 -12 28 -46 61 -80 79 -29 15 -32 14 -40 -5z"/>
    <path d="M1994 2547 c-100 -48 -164 -127 -164 -203 0 -83 82 -163 165 -164 73 0 190 84 226 164 69 151 -72 277 -227 203z m164 -69 c7 -7 12 -25 12 -41 0 -50 -153 -177 -214 -177 -23 0 -56 36 -56 62 0 26 91 117 147 147 43 23 93 27 111 9z"/>
    <path d="M1547 2218 c-48 -28 -80 -91 -71 -139 10 -48 21 -68 66 -116 22 -22 37 -46 34 -52 -12 -19 -21 -13 -55 35 -52 71 -143 120 -179 96 -10 -7 2 -24 45 -68 32 -33 72 -85 88 -117 17 -31 33 -57 38 -57 11 0 177 112 177 120 0 12 -33 36 -68 50 -34 13 -62 54 -62 91 0 11 15 36 34 55 46 46 96 47 137 3 38 -40 37 -59 0 -59 -34 0 -63 -32 -54 -59 20 -56 78 -68 112 -25 52 66 3 201 -91 250 -40 21 -107 17 -151 -8z"/>
    <path d="M1121 1912 c-38 -19 -45 -30 -32 -51 7 -10 16 -11 37 -4 46 15 61 6 99 -65 20 -37 46 -77 58 -89 11 -13 17 -23 13 -23 -21 0 -84 35 -134 74 -97 76 -152 83 -208 25 -25 -26 -29 -38 -28 -82 2 -147 181 -283 268 -202 31 29 33 63 5 99 -22 28 -66 35 -87 14 -15 -15 -15 -51 0 -66 9 -9 8 -12 -8 -12 -31 0 -59 25 -79 70 -17 38 -17 45 -4 68 27 49 59 49 160 -2 99 -50 140 -56 195 -30 42 20 47 28 39 55 -5 15 -13 19 -27 16 -36 -10 -47 4 -73 88 -19 63 -33 90 -56 109 -37 31 -88 34 -138 8z"/>
    <path d="M4865 2560 c-68 -21 -112 -102 -95 -176 26 -114 171 -217 275 -194 74 17 125 80 125 155 0 125 -181 252 -305 215z m133 -117 c94 -65 126 -128 82 -168 -28 -26 -76 -13 -146 40 -73 55 -109 105 -100 140 14 54 75 50 164 -12z"/>
    <path d="M5304 2221 c-106 -48 -133 -172 -60 -278 67 -98 179 -136 265 -91 71 36 104 86 109 161 3 56 1 67 -26 106 -48 71 -138 121 -217 121 -16 0 -48 -9 -71 -19z m103 -86 c65 -33 143 -115 143 -150 0 -14 -11 -37 -26 -52 -34 -34 -67 -27 -149 31 -95 69 -122 122 -85 169 27 34 52 34 117 2z"/>
    <path d="M5780 1913 c-69 -26 -130 -120 -130 -201 0 -63 23 -112 77 -164 115 -111 256 -81 332 71 27 54 33 89 21 127 -44 133 -237 101 -281 -46 -7 -22 -15 -40 -19 -40 -12 0 -49 45 -59 73 -8 21 -7 36 3 61 19 45 34 53 52 27 30 -42 94 -14 94 42 0 45 -41 68 -90 50z m188 -203 c26 -16 32 -26 32 -54 0 -81 -83 -116 -134 -55 -34 40 -33 64 3 100 35 34 54 36 99 9z"/>
    <path d="M2334 2207 c-49 -24 -112 -86 -140 -139 -59 -113 16 -248 138 -248 62 0 94 17 151 80 71 79 95 175 61 246 -37 77 -123 102 -210 61z m145 -78 c13 -24 12 -31 -13 -82 -38 -78 -114 -157 -151 -157 -34 0 -65 25 -65 54 0 34 54 118 109 169 59 56 95 60 120 16z"/>
    <path d="M2020 1780 c-70 -13 -147 -75 -186 -150 -57 -113 28 -257 160 -268 175 -14 304 235 187 361 -45 49 -99 68 -161 57z m118 -103 c10 -22 11 -35 2 -62 -17 -52 -94 -148 -135 -171 -32 -17 -38 -18 -63 -4 -15 9 -31 28 -37 44 -13 38 30 119 96 181 43 40 54 46 87 43 29 -2 40 -9 50 -31z"/>
    <path d="M1630 1396 c-9 -12 -6 -19 14 -37 50 -43 21 -90 -30 -50 -25 20 -28 20 -46 5 -25 -23 -23 -39 7 -58 14 -9 25 -21 25 -27 0 -5 -31 -49 -69 -97 -65 -82 -68 -88 -53 -105 32 -36 46 -37 208 -16 187 23 191 24 205 52 13 23 13 23 -100 110 -51 40 -60 51 -51 63 16 18 35 18 64 -1 21 -14 24 -13 39 3 20 22 18 25 -102 116 -77 59 -91 65 -111 42z m109 -266 c23 -17 39 -35 36 -39 -6 -10 -143 -26 -152 -18 -6 7 55 87 66 87 5 0 27 -14 50 -30z"/>
    <path d="M4535 2239 c-42 -12 -85 -59 -96 -105 -16 -72 11 -151 79 -226 87 -96 210 -91 279 11 48 70 18 177 -71 259 -63 58 -129 79 -191 61z m70 -79 c31 -19 100 -101 124 -147 26 -51 3 -103 -45 -103 -52 0 -174 150 -174 214 0 24 28 56 48 56 8 0 29 -9 47 -20z"/>
    <path d="M4892 1805 c-78 -34 -132 -103 -132 -169 0 -49 40 -121 80 -141 62 -32 153 -6 207 60 17 20 36 34 42 31 20 -13 10 -31 -40 -69 -61 -47 -89 -90 -89 -139 0 -21 3 -38 6 -38 4 0 34 26 68 58 34 31 87 71 118 87 l57 31 -61 92 c-57 87 -62 92 -82 79 -11 -8 -23 -26 -28 -42 -12 -45 -47 -75 -88 -75 -54 0 -100 47 -100 102 0 31 43 83 76 92 19 6 21 3 16 -19 -5 -30 21 -65 50 -65 30 0 70 46 63 73 -18 60 -91 83 -163 52z"/>
    <path d="M5303 1418 c-4 -7 -8 -24 -8 -38 0 -27 -17 -37 -105 -65 -66 -20 -108 -57 -116 -101 -7 -39 10 -95 35 -118 25 -23 36 -6 36 54 l0 44 70 38 c38 21 77 46 87 55 12 11 18 12 18 4 0 -19 -18 -49 -70 -121 -64 -88 -77 -128 -54 -175 35 -75 130 -85 225 -25 97 63 141 177 87 227 -36 33 -77 34 -108 3 -43 -43 -7 -110 47 -89 32 12 32 12 26 -10 -15 -58 -115 -101 -153 -66 -31 28 -25 75 20 160 30 57 40 88 40 122 0 72 -51 140 -77 101z"/>
    <path d="M2724 1978 c-69 -47 -109 -127 -109 -219 0 -72 14 -103 67 -142 33 -25 109 -33 148 -17 49 20 105 92 124 158 28 102 17 159 -43 220 -29 28 -39 32 -86 32 -43 0 -62 -6 -101 -32z m131 -34 c30 -12 37 -52 19 -112 -46 -161 -125 -227 -169 -143 -17 34 -8 75 37 166 40 81 71 105 113 89z"/>
    <path d="M2536 1490 c-47 -15 -123 -97 -142 -153 -22 -65 -15 -145 15 -183 38 -48 87 -77 140 -82 66 -6 93 2 137 41 77 67 109 206 65 287 -38 72 -139 114 -215 90z m125 -81 c18 -18 20 -29 15 -67 -10 -71 -64 -181 -99 -198 -38 -20 -80 -4 -97 37 -11 25 -9 39 15 105 46 125 114 175 166 123z"/>
    <path d="M2311 980 c-18 -4 -49 -24 -69 -43 -28 -29 -36 -45 -40 -86 -4 -44 -1 -57 23 -91 29 -42 128 -100 172 -100 14 0 23 -6 23 -15 0 -20 -16 -19 -67 6 -61 29 -164 37 -198 15 -14 -9 -25 -20 -25 -25 0 -4 25 -14 56 -21 30 -7 97 -34 148 -60 92 -46 93 -47 106 -26 35 55 81 160 76 172 -4 10 -22 14 -64 13 -63 -2 -114 18 -132 50 -25 48 0 120 50 141 26 11 37 10 74 -4 59 -22 75 -42 44 -52 -42 -13 -51 -51 -18 -84 25 -25 72 -26 93 -2 10 10 17 35 17 55 0 90 -159 183 -269 157z"/>
    <path d="M4136 2005 c-108 -38 -144 -160 -86 -292 27 -61 55 -91 105 -114 53 -25 102 -23 150 4 111 63 114 222 7 338 -59 63 -117 84 -176 64z m78 -98 c43 -56 76 -138 76 -190 0 -42 -3 -49 -27 -58 -37 -14 -68 11 -107 86 -38 76 -48 162 -20 182 29 21 51 15 78 -20z"/>
    <path d="M4335 1481 c-100 -46 -138 -149 -99 -267 23 -67 55 -108 107 -133 97 -47 212 -8 261 91 32 63 32 81 5 154 -26 69 -75 125 -134 153 -55 26 -88 26 -140 2z m99 -86 c63 -68 99 -214 60 -245 -28 -24 -75 -16 -100 15 -52 66 -84 204 -54 240 20 24 68 19 94 -10z"/>
    <path d="M4554 966 c-63 -29 -118 -77 -134 -116 -26 -63 13 -133 83 -147 25 -5 26 -7 13 -22 -38 -42 -27 -110 23 -136 40 -20 86 -19 156 5 74 25 120 60 145 111 19 36 19 41 5 69 -19 37 -53 47 -93 26 -46 -24 -54 -54 -21 -87 25 -25 12 -46 -36 -55 -89 -16 -118 60 -39 102 27 15 34 24 32 44 -3 24 -6 25 -68 25 -61 0 -65 2 -78 29 -24 49 13 98 86 112 31 6 32 6 26 -25 -8 -37 17 -71 51 -71 33 0 75 37 75 66 0 85 -117 121 -226 70z"/>
    <path d="M3650 1868 c-52 -35 -80 -98 -80 -177 0 -90 14 -134 58 -180 116 -122 303 -8 277 168 -8 57 -39 128 -68 159 -52 56 -130 68 -187 30z m128 -90 c32 -64 42 -196 18 -233 -22 -34 -67 -34 -95 0 -50 65 -55 244 -7 278 28 19 61 2 84 -45z"/>
    <path d="M3715 1311 c-66 -40 -95 -100 -95 -193 0 -75 24 -132 69 -171 30 -25 87 -47 121 -47 65 0 152 58 176 117 28 66 12 176 -37 244 -46 65 -168 91 -234 50z m118 -52 c34 -26 57 -103 57 -186 0 -55 -4 -68 -25 -88 -64 -64 -132 8 -137 145 -2 82 2 101 27 125 29 30 45 31 78 4z"/>
    <path d="M3804 761 c-146 -66 -164 -312 -29 -388 82 -47 237 -19 293 52 34 43 30 105 -8 149 -17 19 -47 40 -67 47 -44 14 -116 5 -160 -21 l-33 -19 0 39 c0 55 17 86 57 105 43 21 78 12 61 -15 -10 -15 -9 -23 6 -39 23 -25 53 -27 84 -5 31 22 28 57 -9 88 -26 22 -40 26 -92 26 -39 0 -77 -7 -103 -19z m146 -221 c20 -20 27 -83 12 -107 -8 -13 -55 -33 -78 -33 -28 0 -64 47 -64 85 0 46 29 75 75 75 22 0 43 -8 55 -20z"/>
    <path d="M3204 1718 c-10 -15 24 -38 58 -38 23 0 28 4 28 25 0 22 -4 25 -39 25 -22 0 -43 -5 -47 -12z"/>
    <path d="M3150 1265 c0 -18 39 -35 81 -35 26 0 30 3 27 23 -3 19 -10 22 -55 25 -43 2 -53 0 -53 -13z"/>
    <path d="M3106 638 c20 -36 26 -39 45 -22 28 25 23 34 -17 34 -25 0 -33 -4 -28 -12z"/>
    <path d="M2984 460 c-44 -18 -41 -51 5 -70 36 -15 144 -30 152 -21 4 3 9 23 12 43 6 43 5 44 -88 52 -33 3 -70 1 -81 -4z"/>
    <path d="M2973 334 c-7 -3 -13 -16 -13 -29 0 -27 30 -40 117 -51 l52 -6 7 36 c3 20 4 39 2 41 -7 8 -152 15 -165 9z"/>
    <g transform="matrix(0.864627, 0.502417, -0.502417, 0.864627, 303.805542, -3510.828369)">
      <path d="M 7821.907 5241.964 C 7732.907 5211.964 7728.907 5211.964 7715.907 5228.964 C 7707.907 5239.964 7696.907 5244.964 7690.907 5240.964 C 7680.907 5234.964 7708.907 5146.964 7731.907 5117.964 C 7745.907 5098.964 7760.907 5113.964 7754.907 5139.964 C 7749.907 5159.964 7754.907 5164.964 7795.907 5178.964 C 7820.907 5187.964 7843.907 5192.964 7845.907 5190.964 C 7847.907 5188.964 7828.907 5154.964 7804.907 5114.964 C 7759.907 5041.964 7759.907 5041.964 7775.907 5005.964 C 7783.907 4985.964 7792.907 4961.964 7795.907 4952.964 C 7803.907 4924.964 7826.907 4931.964 7830.907 4961.964 C 7832.907 4984.964 7844.907 4994.964 7898.907 5020.964 C 7953.907 5047.964 7965.907 5050.964 7974.907 5038.964 C 7988.907 5021.964 8008.907 5020.964 8008.907 5037.964 C 8008.907 5043.964 8000.907 5071.964 7991.907 5097.964 C 7979.907 5129.964 7969.907 5144.964 7958.907 5142.964 C 7949.907 5140.964 7944.907 5130.964 7946.907 5118.964 C 7949.907 5097.964 7941.907 5092.964 7860.907 5057.964 C 7827.907 5043.964 7827.907 5043.964 7839.907 5066.964 C 7846.907 5079.964 7871.907 5119.964 7895.907 5155.964 C 7933.907 5212.964 7937.907 5224.964 7929.907 5247.964 C 7923.907 5262.964 7917.907 5274.964 7916.907 5273.964 C 7914.907 5273.964 7871.907 5258.964 7821.907 5241.964 Z" transform="matrix(-1, 0, 0, -1, 15697.72998, 10209.325684)"/>
      <path d="M 8092.883 5406.306 C 8082.883 5404.306 8074.883 5398.306 8074.883 5394.306 C 8074.883 5380.306 8097.883 5365.306 8110.883 5370.306 C 8133.883 5379.306 8126.883 5355.306 8102.883 5342.306 C 8089.883 5335.306 8075.883 5324.306 8071.883 5316.306 C 8064.883 5305.306 8059.883 5305.306 8041.883 5318.306 C 7985.883 5357.306 7943.883 5319.306 7963.883 5247.306 C 7999.883 5121.306 8100.883 4935.306 8081.883 5032.306 C 8074.883 5064.306 8075.883 5065.306 8147.883 5098.306 C 8217.883 5131.306 8219.883 5132.306 8233.883 5113.306 C 8250.883 5088.306 8264.883 5087.306 8264.883 5112.306 C 8264.883 5137.306 8207.883 5263.306 8196.883 5263.306 C 8179.883 5263.306 8175.883 5251.306 8184.883 5227.306 C 8192.883 5206.306 8190.883 5201.306 8169.883 5191.306 C 8137.883 5177.306 8118.883 5186.306 8110.883 5219.306 C 8104.883 5242.306 8107.883 5251.306 8126.883 5265.306 C 8179.883 5304.306 8186.883 5314.306 8179.883 5341.306 C 8174.883 5367.306 8131.883 5414.306 8116.883 5412.306 C 8112.883 5411.306 8101.883 5409.306 8092.883 5406.306 Z M 8074.883 5210.306 C 8096.883 5169.306 8097.883 5161.306 8084.883 5153.306 C 8053.883 5133.306 8036.883 5142.306 8020.883 5190.306 C 8008.883 5225.306 8007.883 5239.306 8016.883 5250.306 C 8033.883 5271.306 8047.883 5261.306 8074.883 5210.306 Z" transform="matrix(-1, 0, 0, -1, 16223.704102, 10417.668945)"/>
      <path d="M 8269.499 5544.317 C 8261.499 5531.317 8326.499 5382.317 8343.499 5376.317 C 8354.499 5372.317 8355.499 5379.317 8350.499 5406.317 C 8344.499 5441.317 8344.499 5441.317 8400.499 5463.317 C 8431.499 5474.317 8464.499 5484.317 8475.499 5484.317 C 8498.499 5484.317 8523.499 5447.317 8531.499 5400.317 L 8537.499 5364.317 L 8468.499 5332.317 C 8429.499 5314.317 8399.499 5305.317 8397.499 5311.317 C 8388.499 5338.317 8365.499 5359.317 8355.499 5348.317 C 8347.499 5341.317 8355.499 5312.317 8382.499 5249.317 C 8422.499 5154.317 8448.499 5127.317 8442.499 5185.317 C 8439.499 5217.317 8442.499 5221.317 8495.499 5249.317 C 8576.499 5292.317 8584.499 5301.317 8584.499 5345.317 C 8584.499 5425.317 8527.499 5528.317 8472.499 5547.317 C 8462.499 5550.317 8429.499 5544.317 8398.499 5534.317 C 8326.499 5509.317 8307.499 5509.317 8299.499 5534.317 C 8292.499 5555.317 8279.499 5560.317 8269.499 5544.317 Z" transform="matrix(-1, 0, 0, -1, 16853.319336, 10708.679199)"/>
      <path d="M 8596.822 5702.382 C 8569.822 5691.382 8548.822 5676.382 8548.822 5669.382 C 8548.822 5655.382 8712.822 5257.382 8722.822 5247.382 C 8728.822 5241.382 8800.822 5266.382 8827.822 5283.382 C 8839.822 5291.382 8840.822 5297.382 8830.822 5318.382 C 8820.822 5340.382 8814.822 5343.382 8789.822 5338.382 C 8764.822 5333.382 8753.822 5337.382 8728.822 5363.382 C 8711.822 5380.382 8698.822 5401.382 8700.822 5410.382 C 8702.822 5420.382 8741.822 5442.382 8797.822 5465.382 C 8848.822 5486.382 8892.822 5504.382 8894.822 5504.382 C 8896.822 5504.382 8907.822 5486.382 8918.822 5464.382 C 8932.822 5437.382 8943.822 5426.382 8953.822 5430.382 C 8961.822 5434.382 8968.822 5439.382 8968.822 5443.382 C 8968.822 5446.382 8945.822 5506.382 8916.822 5576.382 C 8877.822 5671.382 8858.822 5704.382 8846.822 5704.382 C 8825.822 5704.382 8823.822 5685.382 8840.822 5649.382 C 8849.822 5628.382 8849.822 5621.382 8837.822 5610.382 C 8815.822 5588.382 8654.822 5525.382 8645.822 5534.382 C 8640.822 5538.382 8634.822 5560.382 8631.822 5582.382 C 8626.822 5617.382 8629.822 5626.382 8653.822 5648.382 C 8674.822 5668.382 8679.822 5679.382 8674.822 5699.382 C 8666.822 5729.382 8658.822 5729.382 8596.822 5702.382 Z" transform="matrix(-1, 0, 0, -1, 17517.644531, 10968.743164)"/>
      <path d="M 9359.421 5520.546 C 9334.421 5514.546 9343.421 5492.546 9371.421 5491.546 C 9408.421 5489.546 9429.421 5436.546 9398.421 5424.546 C 9377.421 5416.546 9372.421 5427.546 9385.421 5448.546 C 9402.421 5475.546 9390.421 5479.546 9348.421 5462.546 C 9313.421 5447.546 9307.421 5427.546 9338.421 5427.546 C 9347.421 5427.546 9352.421 5421.546 9350.421 5415.546 C 9342.421 5392.546 9318.421 5401.546 9307.421 5430.546 C 9299.421 5454.546 9301.421 5461.546 9316.421 5473.546 C 9333.421 5485.546 9333.421 5487.546 9319.421 5492.546 C 9311.421 5496.546 9295.421 5494.546 9283.421 5488.546 C 9264.421 5477.546 9264.421 5476.546 9294.421 5402.546 C 9322.421 5333.546 9342.421 5307.546 9342.421 5341.546 C 9342.421 5359.546 9418.421 5390.546 9443.421 5382.546 C 9468.421 5374.546 9467.421 5379.546 9435.421 5459.546 C 9409.421 5527.546 9403.421 5531.546 9359.421 5520.546 Z" transform="matrix(-1, 0, 0, -1, 18731.242188, 10851.907227)"/>
      <path d="M 9276.73 5644.475 C 9270.73 5634.475 9260.73 5627.475 9253.73 5630.475 C 9246.73 5632.475 9233.73 5629.475 9224.73 5622.475 C 9210.73 5611.475 9208.73 5602.475 9215.73 5571.475 C 9225.73 5530.475 9251.73 5494.475 9272.73 5494.475 C 9279.73 5494.475 9292.73 5501.475 9301.73 5511.475 C 9310.73 5520.475 9331.73 5528.475 9347.73 5529.475 C 9364.73 5531.475 9379.73 5534.475 9382.73 5537.475 C 9389.73 5543.475 9358.73 5634.475 9344.73 5651.475 C 9328.73 5671.475 9288.73 5667.475 9276.73 5644.475 Z M 9342.73 5599.475 C 9346.73 5584.475 9343.73 5567.475 9335.73 5558.475 C 9323.73 5543.475 9321.73 5544.475 9315.73 5565.475 C 9303.73 5605.475 9305.73 5624.475 9321.73 5624.475 C 9329.73 5624.475 9338.73 5613.475 9342.73 5599.475 Z M 9268.73 5542.475 C 9251.73 5525.475 9236.73 5564.475 9249.73 5594.475 L 9259.73 5619.475 L 9269.73 5586.475 C 9276.73 5563.475 9276.73 5550.475 9268.73 5542.475 Z" transform="matrix(-1, 0, 0, -1, 18595.553711, 11158.837891)"/>
      <path d="M 9046.412 5607.772 C 9037.412 5590.772 9021.412 5568.772 9009.412 5558.772 C 8968.412 5521.772 8988.412 5498.772 9071.412 5490.772 C 9097.412 5487.772 9118.412 5489.772 9118.412 5494.772 C 9118.412 5515.772 9097.412 5541.772 9084.412 5536.772 C 9077.412 5533.772 9068.412 5538.772 9064.412 5548.772 C 9060.412 5560.772 9062.412 5563.772 9073.412 5558.772 C 9091.412 5551.772 9092.412 5567.772 9074.412 5607.772 L 9061.412 5637.772 L 9046.412 5607.772 Z" transform="matrix(-1, 0, 0, -1, 18107.231445, 11127.134277)"/>
      <path d="M 9172.836 5812.251 C 9143.836 5784.251 9141.836 5761.251 9162.836 5711.251 C 9197.836 5627.251 9316.836 5641.251 9317.836 5730.251 C 9318.836 5818.251 9228.836 5869.251 9172.836 5812.251 Z M 9275.836 5785.251 C 9308.836 5752.251 9271.836 5693.251 9221.836 5699.251 C 9200.836 5701.251 9190.836 5710.251 9182.836 5731.251 C 9174.836 5755.251 9176.836 5762.251 9196.836 5778.251 C 9222.836 5800.251 9257.836 5803.251 9275.836 5785.251 Z" transform="matrix(-1, 0, 0, -1, 18466.65918, 11491.613281)"/>
      <path d="M 9133.437 6008.799 C 9107.437 5994.799 9111.437 5979.799 9140.437 5979.799 C 9161.437 5979.799 9185.437 5955.799 9185.437 5935.799 C 9185.437 5923.799 9109.437 5898.799 9088.437 5904.799 C 9061.437 5910.799 9060.437 5901.799 9080.437 5853.799 C 9094.437 5820.799 9115.437 5814.799 9115.437 5844.799 C 9115.437 5863.799 9194.437 5893.799 9210.437 5879.799 C 9234.437 5859.799 9233.437 5883.799 9206.437 5952.799 C 9180.437 6020.799 9168.437 6029.799 9133.437 6008.799 Z" transform="matrix(-1, 0, 0, -1, 18294.256836, 11844.159668)"/>
    </g>
  </g>
</svg>